<svg xmlns="http://www.w3.org/2000/svg" xmlns:xlink="http://www.w3.org/1999/xlink" viewBox="0 0 995 786.9"><defs><style>.cls-1{fill:#d9f4ff;}.cls-2{fill:#9ed5fc;}.cls-3{fill:#fffefe;}.cls-4{fill:#ffd91e;}.cls-5{fill:#ffc10a;}.cls-6{fill:#2038aa;}.cls-7{fill:#fffeff;}.cls-8{fill:#fff;}.cls-9{fill:#cee9fc;}.cls-10{fill:#283fbd;}.cls-11{fill:#ffd622;}.cls-12{fill:#84c8f6;}.cls-13{fill:#2b3ebb;}.cls-14{fill:url(#linear-gradient);}.cls-15{fill:url(#linear-gradient-2);}.cls-16{fill:#10276a;}.cls-17{fill:#f6a278;}.cls-18{fill:#75c0f4;}.cls-19{fill:url(#linear-gradient-3);}.cls-20{fill:#fdb77d;}.cls-21{fill:#2337a9;}.cls-22{fill:#0c247d;}.cls-23{fill:#ffb591;}.cls-24{fill:url(#linear-gradient-4);}.cls-25{fill:#011433;}.cls-26{fill:#f7db1c;}</style><linearGradient id="linear-gradient" x1="763.99" y1="374.37" x2="763.99" y2="300.69" gradientUnits="userSpaceOnUse"><stop offset="0" stop-color="#fc946e"/><stop offset="1" stop-color="#ffb178"/></linearGradient><linearGradient id="linear-gradient-2" x1="786.49" y1="437.41" x2="786.49" y2="365.22" gradientUnits="userSpaceOnUse"><stop offset="0" stop-color="#339eee"/><stop offset="1" stop-color="#75c0f4"/></linearGradient><linearGradient id="linear-gradient-3" x1="763.11" y1="375.9" x2="763.11" y2="345.21" gradientUnits="userSpaceOnUse"><stop offset="0" stop-color="#f2845e"/><stop offset="1" stop-color="#febb81"/></linearGradient><linearGradient id="linear-gradient-4" x1="297.14" y1="315.32" x2="297.14" y2="468.93" gradientUnits="userSpaceOnUse"><stop offset="0" stop-color="#afe2ff"/><stop offset="1" stop-color="#72bef2"/></linearGradient></defs><title>Asset 50</title><g id="Layer_2" data-name="Layer 2"><g id="ABES"><path class="cls-1" d="M909.07,474.91c-9,21.8-18.78,43.26-28.31,62.62-15.18,30.84-29.65,56.36-38.91,69.48a149.13,149.13,0,0,1-28.11,29.69l-.48.4c-92.89,74.8-299.37,82.83-541.56,28.27q-15.42-3.47-31-7.28-37.47-9.15-75.86-20.24l-3.56-1-1.11-.32a778.38,778.38,0,0,1-35.44-120.71Q122.21,503.62,120,491q-1.39-8.16-2.64-16.51-1.83-12.19-3.27-24.77-.94-8.18-1.71-16.51-1.12-12.23-1.85-24.77-.48-8.19-.77-16.51-.42-12.24-.44-24.77,0-6.24.09-12.56c.62-38.06,1.73-84.07,12.38-132.5a386.11,386.11,0,0,1,11.58-41.68,344.88,344.88,0,0,1,23.1-53.08A334.59,334.59,0,0,1,174.3,98.09C189,76.58,208.71,48.24,245.06,26.74,288.81.86,326,3,422,3.15c185,.34,170.78-7.25,219.37,0,71.88,10.73,129.82,19.38,189.88,61.33,24,16.77,90.43,68.24,118.83,150.45a241.59,241.59,0,0,1,8.47,31q1.43,7,2.44,14.31C970.16,326.47,948.78,378.42,909.07,474.91Z"/><path class="cls-2" d="M292.67,153.3A7.68,7.68,0,0,1,285,161H214.07a13.57,13.57,0,0,1-12.21,19.46H119.59A13.57,13.57,0,0,1,106,166.86a13.37,13.37,0,0,1,1.35-5.89h-6.95a7.67,7.67,0,0,1,0-15.34h37.21c0-.48-.06-1-.06-1.47a16.82,16.82,0,0,1,16.8-16.81h20.05v-1.91a16.37,16.37,0,1,1,32.73,0v1.91h28.9a16.81,16.81,0,0,1,16.8,16.81c0,.49,0,1-.06,1.47H285A7.67,7.67,0,0,1,292.67,153.3Z"/><path class="cls-2" d="M475.38,378.68a.14.14,0,1,0,0-.28.14.14,0,0,0,0,.28Z"/><path class="cls-2" d="M995,236.63a9.34,9.34,0,0,1-9.32,9.33H818.13a9.33,9.33,0,0,1,0-18.65h26.34a8.66,8.66,0,0,1-.72-3.5,8.88,8.88,0,0,1,8.88-8.88h28.24a14.59,14.59,0,0,1,14.18-18.06h9.29a14.62,14.62,0,0,1,14.18,18.06H950.3a8.88,8.88,0,0,1,8.16,12.38h27.22A9.32,9.32,0,0,1,995,236.63Z"/><path class="cls-3" d="M845.1,213.69l-84.64-39.83v39.83H741.59v290.6H627.19V643h125V637.1h62.39l-.85-.4A149.13,149.13,0,0,0,841.85,607c9.26-13.12,23.73-38.64,38.91-69.48V213.69ZM765,296.83h18.28v18.28H765Zm-1.57,170.81V449.36h18.28v18.28ZM764,335h18.28v18.28H764Zm-.39,38.13h18.28v18.29H763.61Zm-.4,38.14H781.5v18.28H763.21Zm86.89,56.41H831.82V449.36H850.1Zm-18.48-38.13V411.23H849.9v18.28Zm18.67-38.13H832V373.09h18.28Zm.4-38.14H832.4V335h18.29Zm1-38.13H833.39V296.83h18.28Z"/><path class="cls-3" d="M444.94,534.74V428.88H401.3V534.74H376.54v69.15H357.67V186.72h-28.9v-46H304.59v46H278.06V121.27H262.72v65.45H245v138H127.68v-14h65.46V255.13H127.68v-33h-5.87c-10.65,48.43-11.76,94.44-12.38,132.5q-.11,6.31-.09,12.56h17.75v24.77H109.78q.3,8.32.77,16.51h16.54v24.77H112.4q.76,8.32,1.71,16.51H126.5V474.5h-9.12q1.23,8.34,2.64,16.51h5.3v24.77h-.61a778.38,778.38,0,0,0,35.44,120.71l1.11.32-4.1,1H457.92V534.74ZM159.52,367.17h24.77v24.77H159.52Zm0,41.28h24.77v24.77H159.52Zm-.58,41.28H183.7V474.5H158.94ZM157.76,491h24.76v24.77H157.76Zm.59,66V532.29h24.76v24.77Z"/><path class="cls-4" d="M706.93,295.9c0,63.37-36,118.5-89,146.85v29.93a49.69,49.69,0,0,1-49.69,49.68H503a49.68,49.68,0,0,1-49.68-49.68V442.12C401,413.58,365.49,358.79,365.49,295.9c0-92.34,76.44-167.19,170.72-167.19S706.93,203.56,706.93,295.9Z"/><path class="cls-5" d="M606.26,316a5.9,5.9,0,0,0-7,2.82c-2.61,4.86-8.53,13.49-18.91,16.6a32.46,32.46,0,0,1-16.52.18c-7-1.52-11.14-4.45-15.14-7.29-4.8-3.4-9.77-6.93-17.75-6.39-3.71.25-5.51,1.3-8.22,2.89-1.89,1.1-4.75,2.78-10.13,5.33-12.79,6.07-19.82,9.41-24.18,8.42-5.85-1.33-9.49-9.19-11.66-13.88-.64-1.37-1.18-2.55-1.74-3.51-2.52-4.33-6-4.15-7.37-3.86a6.53,6.53,0,0,0-5,4.75,14.21,14.21,0,0,0-.51,3.26,68.94,68.94,0,0,0,.22,8.54c.54,7.5,1.91,19.13,4.08,34.55,4.56,32.51,12.86,83.5,24.69,151.68l.15.86,2.07,11.9a5.9,5.9,0,0,0,5.77,4.89l75.77.59H575a5.9,5.9,0,0,0,5.84-5.08l1.82-13v-.11l27.65-197.69A5.9,5.9,0,0,0,606.26,316ZM570.72,520.1l-.31,2.21-.58,4.19L504.14,526c-.22-1.21-.42-2.43-.63-3.63-.14-.76-.27-1.51-.4-2.26-11.05-63.62-19.06-112.43-23.83-145.2-2-13.69-3.27-23.62-4.08-30.82a21.86,21.86,0,0,0,10.58,6c8.34,1.89,16.19-1.84,31.84-9.27,5.85-2.78,9-4.61,11-5.82s2.11-1.23,3.05-1.29c3.64-.25,5.74,1.12,10.14,4.24s10.09,7.17,19.47,9.2a44.22,44.22,0,0,0,22.4-.41,39.37,39.37,0,0,0,12.1-6.08Z"/><path class="cls-6" d="M596.66,535.14V580a15,15,0,0,1-15,15H570a36,36,0,0,1-68.87,0H489.43a15,15,0,0,1-15-15V535.14a15,15,0,0,1,15-15h92.19A15,15,0,0,1,596.66,535.14Z"/><ellipse class="cls-7" cx="591.78" cy="172.26" rx="14.4" ry="19.25" transform="translate(298.72 714.47) rotate(-77.84)"/><path class="cls-8" d="M677.22,311.48a11.25,11.25,0,0,1-1.16-.05,11.8,11.8,0,0,1-10.6-12.89c1.21-12.41,1.17-36.92-12.7-61.63A104.35,104.35,0,0,0,620.59,202a11.8,11.8,0,1,1,13.28-19.5,128.22,128.22,0,0,1,39.46,42.9,126.38,126.38,0,0,1,15.07,45.4,131.5,131.5,0,0,1,.54,30.06A11.79,11.79,0,0,1,677.22,311.48Z"/><rect class="cls-4" x="632.11" y="50.7" width="19.9" height="71.65" rx="3.22" ry="3.22" transform="translate(177.97 -365.53) rotate(36.57)"/><rect class="cls-4" x="419.95" y="50.7" width="19.9" height="71.65" rx="3.22" ry="3.22" transform="translate(826.71 -100.14) rotate(143.43)"/><rect class="cls-4" x="526.03" y="29.54" width="19.9" height="71.65" rx="3.22" ry="3.22"/><path class="cls-9" d="M931.48,706.6c-7.8,9.28-17.19,13.2-21.65,15.06-54.88,23-44.66,21.25-63.62,27a451.82,451.82,0,0,1-51.53,12.46c-37.83,7.05-70.34,13.09-122,18.27-45.81,4.58-89.36,8.94-147.57,7-46.9-1.55-73.52-2.07-110.31-10.64-43.73-10.19-87.09-24.92-87.09-24.92-18.22-6.18-40.58-14.44-72.33-17.17a269.75,269.75,0,0,0-29.75-.73c-111.44,1.45-71.22-5.06-157-5.56-15.28-.09-35.21,0-52-13.31-5.27-4.17-18-14.24-16.45-24.92,1.92-13.44,30.57-22,87.49-36.37l5-1.27,12-3c15.9-4,23.84-6,35.49-8.26a541.15,541.15,0,0,1,58.67-8c9.23-.78,18-1.36,26.31-1.89l7.69-.49q19.13-1.2,37.19-2.27c11.6-.68,22.86-1.32,33.72-1.92,71.67-4,126.45-6.1,154.06-6.73,6.48-.15,11.47-.22,14.82-.2q27.1.11,50.33.68c22.14.51,41.66,1.22,58.63,1.85l3.53.13c23,.85,50.18,2.06,81,3.85,15.42.9,31.75,1.94,48.9,3.17,63.09,4.49,46.57,4.93,78.13,6.53,30,1.51,57.29,1.76,89.27,11.12a110.92,110.92,0,0,1,13.28,5.29l1.05.48a224.8,224.8,0,0,1,24.37,13.35c14.65,9.15,18.45,14,19.36,19.59C942,694.15,934.84,702.61,931.48,706.6Z"/><path class="cls-10" d="M711.51,678.5a11.68,11.68,0,0,1,2.45-4c2.23-2.36,4.66-2.81,8.16-3.93,5.81-1.87,10.69-3.44,13.47-7.18a12.77,12.77,0,0,0,2.35-6.68l21.82.1q.65,10.76,1.28,21.52Z"/><path class="cls-10" d="M819.74,676.34a11.64,11.64,0,0,0-2.46-4c-2.23-2.37-4.65-2.81-8.15-3.94-5.81-1.87-10.69-3.44-13.47-7.17a12.89,12.89,0,0,1-2.36-6.68l-21.82.09q-.63,10.77-1.27,21.53Z"/><path class="cls-11" d="M732.27,461.68c-.39,1.49-3.91,15.16-5.6,26.54-2.42,16.25-1.32,29.3-.59,38,2.07,25,5.8,72.11,11.32,133.41l22.59.45q1.17-56,2.35-112,4.42,55.84,8.84,111.69l23.39-.37c1.95-41,2.35-74.73,2.27-99.52-.06-20.21-.43-33.34-.59-38.47-.75-24.56-2.2-47.94-4.13-70l-55.43-5C735.48,450.18,733.9,455.41,732.27,461.68Z"/><path class="cls-12" d="M739.77,361.26c0-4.84,3.53-8.72,5.87-10.78.25-.36,2-2.83,4.12-2.59a4.79,4.79,0,0,1,2.33,1.25,16.12,16.12,0,0,1,2.81,2.76c2.88,3.9,5.63,15,7.05,20.22.4,1.48,1.08,3.88,2,6.86C749.4,377.94,739.77,369.26,739.77,361.26Z"/><path class="cls-13" d="M729.32,296.68c-1-.93.22-4.74,2.8-7.37,3.46-3.54,8.13-3.64,8-4.57-.12-1.12-6.85-.89-6.93-1.84-.06-.71,3.5-2,7.3-2.29,3.4-.23,4.44.56,6.73-.34,1.57-.62,4-2.11,3.93-3.93,0-1.39-1.44-2.48-2.63-3.4-2.12-1.63-3.65-1.65-3.66-2.3,0-.93,3-1.95,5.7-2.17a19.54,19.54,0,0,1,6.44.79c2.3.53,4.79,1.34,6.73,2,2.87.93,3.07,1.1,3.74,1,2.44-.39,2.44-2.89,5.5-4.72a10.28,10.28,0,0,1,6.69-1.18c2.7.41,5.46,2,5.3,2.95-.1.68-1.54.51-3.73,1.77-1.84,1.06-3.91,3-3.54,3.93.24.64,1.43.56,3.73.79a27.48,27.48,0,0,1,7.67,1.57c2.07.89,3.46,2.48,6.24,5.65,2.48,2.82,4.1,4.67,3.54,5.75-.86,1.67-6.3.22-6.56,1.25-.14.56,1.4,1,2.95,3.1.17.22,1.9,2.52,1.33,3.24s-3.82-1.2-4.5-.37c-.51.63,1.2,1.85,1.62,4.28.13.76.18,1.87-2.21,8.11-.52,1.34-1,2.44-1.25,3.17a26.62,26.62,0,0,1-5.68,6.7c-11.18,9.39-31.11,9.51-41.67-.59-2.61-2.49-8.28-7.92-7.94-14.59.15-2.78,1.34-6-.07-7S730.37,297.67,729.32,296.68Z"/><path class="cls-14" d="M742,314.65c-1.83-1.3-2.22-2-3.28-2a3.1,3.1,0,0,0-2.6,1.25c-.24.34-.49.86-.38,3.39a15.67,15.67,0,0,0,.44,4,10,10,0,0,0,2.4,3.87,11.43,11.43,0,0,0,4.22,2.87c1.69.65,1.9.22,2.76.79,1.59,1.07,1.62,2.9,2.55,5.9s1.57,3.13,2.36,5.5c1.19,3.55.51,5.47.39,11-.1,4.91-.17,8.11.79,11.79s2.48,9.51,7.27,11c3.84,1.2,8.53-.79,10.62-3.93,1.12-1.68.65-2.56,1.18-10,0-.63,0,.23,1.14-10.23.5-4.52.73-6.7,2.45-8.72,1.13-1.34,2.07-1.61,3.41-2.55,2.15-1.51,4.71-4.3,6.36-10a9.24,9.24,0,0,0,3.22-1.1,10.27,10.27,0,0,0,4.65-6.37c.66-2.53.65-6.23-.82-6.83-.87-.35-2.06.47-2.35.67-1.56,1.07-1.56,2.64-2.73,2.87a2.13,2.13,0,0,1-1.55-.44c-1.57-1.07-1.64-3.52-1.69-4.64-.16-2.88-.47-8.72-2.73-10.91-2-1.94-4.5,0-11.65.22-9.93.34-13.33-3.07-17-.3-2.88,2.21-4,6.86-4.28,7.93-.85,3.47-.38,6.29-1.64,6.72C744.81,316.66,743.86,316,742,314.65Z"/><path class="cls-12" d="M784.75,358.54c0-3.09-2.08-5.56-3.45-6.87-.14-.23-1.18-1.81-2.42-1.65a2.74,2.74,0,0,0-1.37.8,9.55,9.55,0,0,0-1.65,1.75c-1.69,2.49-3.3,9.57-4.14,12.89-.24.94-.64,2.47-1.2,4.37C779.09,369.16,784.75,363.63,784.75,358.54Z"/><path class="cls-15" d="M791.54,394.12c-1.42-9.93.27-16.79,1.48-20.35,1.64-4.83,3.43-6.59,5.31-7.37a7.43,7.43,0,0,1,5.45,0c2.3,1,3.45,3.12,4.42,5.46a43,43,0,0,1,3.39,14.3c.33,17.78.5,26.67-1.17,32.87-2,7.52-4.18,15-10.47,17.55a13.42,13.42,0,0,1-8.41.29c-5-1.4-8.14-5.37-13.26-14.74-5.64-10.31-9.95-18.2-13.42-31.11a126.39,126.39,0,0,1-3.68-20l11.64-5.75q3.9,5.68,7.82,11.65Q786.37,385.62,791.54,394.12Z"/><path class="cls-16" d="M719.14,364.94c-.24-1.14,3.5-2.83,8.41-5,4.08-1.82,9.32-4.13,15.48-6.79a35.18,35.18,0,0,0,7.37,11.5,36,36,0,0,0,15.92,9.59A26.95,26.95,0,0,0,783.27,354,121.22,121.22,0,0,1,795.8,361c3.19,2,6.09,4.05,8.7,6a19.32,19.32,0,0,0-7.66,6.34,23.21,23.21,0,0,0-3,6.34,39.12,39.12,0,0,0-1.92,8.7c-3.24,32,1.33,51.75,1.33,51.75.47,2.06,1.78,7.34-.89,11.35a12.22,12.22,0,0,1-10,5.31c-23.2.48-34.81.73-37,1-1.6.22-6.46.94-8.4-1.48a15.77,15.77,0,0,1-1.77-3.39,21.75,21.75,0,0,1-.88-2.95c-1-4.59,2.65-22.76,3.68-29.78.39-2.62.56-7.05.89-15.92.41-11.1.13-15-1-19.31a29.35,29.35,0,0,0-4.57-10.32c-1.93-2.67-5.12-7.07-10.47-8.55C720.83,365.57,719.29,365.64,719.14,364.94Z"/><path class="cls-17" d="M763.92,426.44l7.87-.47c2.47.53,5.11,1.18,7.89,2,2.38.72,4.6,1.48,6.67,2.26a15.57,15.57,0,0,0,7.72,2.59c2.65.11,4.85-.59,6.42.84a3.73,3.73,0,0,1,1.16,2.61c-.07,2.06-2.43,3.4-4.17,4.38a17,17,0,0,1-5.71,2,24.76,24.76,0,0,1-14.53-1.79c-3.88-1.82-4.06-3.27-7-3.57-2.48-.26-3.48.66-7.29.62-2.64,0-5.16-.05-5.86-1.25C755.63,434.2,762.36,427.87,763.92,426.44Z"/><path class="cls-18" d="M717.79,365.53c-2,.82-3.68,2.61-5.31,6.49-3.4,8.09-2.07,13.61-1.62,27.27.51,15.42-.85,18.91,1.92,27.42a42.06,42.06,0,0,0,5.16,10.76c2.28,3.31,5.91,8.8,12.38,11.5,3.7,1.54,7.24,1.73,12.39,1.33a97.86,97.86,0,0,0,29.78-7.37q-.37-8.48-.74-17c-3.24.24-6.53.43-9.88.59-7.84.38-15.41.51-22.7.45q-.23-20.2-.44-40.4a26.1,26.1,0,0,0-6.2-14C731.61,371.57,723.86,363.08,717.79,365.53Z"/><path class="cls-19" d="M762,373.08c-1-1.22-.81-1.87-1.76-3.78-1.91-3.83-4.05-3.62-6.64-7.08-2.29-3.07-4-7.77-2.41-10.66.27-.49,1.17-2.12,2.66-2.36.93-.16,1.41.35,2.21,0,1.05-.47.77-1.6,1.72-2.07,1.17-.58,2.21.85,3.49.3,1.08-.47.78-1.68,1.82-2.12s1.83.85,3.93.89c1.52,0,1.66-.65,3.24-.59a5.88,5.88,0,0,1,3.29,1.18c1.67,1.33,1.93,3.44,2.07,4.67.31,2.86-.67,4-1.77,8.74-.52,2.26-.23,1.67-1.13,6.54-1.41,7.55-2,8.21-2.61,8.6C767.86,376.74,763.94,375.34,762,373.08Z"/><path class="cls-18" d="M791.54,394c8.21,14.35,15.29,37.31,8.41,42.46-2.68,2-6.75.76-8.41.3-5-1.4-8.14-5.38-13.26-14.75-5.64-10.3-9.95-18.19-13.42-31.1a126.59,126.59,0,0,1-3.68-20.05l11.64-5.75c1.83,2.66,4.57,6.69,7.82,11.64C783.74,381.48,788.85,389.28,791.54,394Z"/><path class="cls-20" d="M253.31,466.43c-2.94,2.82-.53,6.06-3.53,9.63-2.44,2.89-5.1,2.07-7.47,5.7-.49.75-2.05,3.12-1.18,4.72,1.12,2.07,5.61,1.5,6.48,1.37,7.87-1.15,12.2-9.29,12.78-10.41s4.71-9.39,1.57-12.19C260,463.52,255.66,464.17,253.31,466.43Z"/><path class="cls-21" d="M248.4,651.79C245.7,580,248,547.4,251,531.1a371.27,371.27,0,0,0,6.39-47.77l1.23-18.23,62.36,0q3.75,24.51,6.49,51c3.58,35.11,5.14,68.25,5.31,99.07q.28,19.75.59,39.51l-21.63-.39q-5-28.08-9.63-57.2-6-38.28-10.81-75.09l-3.19.1Q285,544.33,282,566.53q-5.73,42.81-11.05,85.65Z"/><path class="cls-22" d="M246.59,302.2a22,22,0,0,1,8.11-12.39c4.73-3.54,9.76-4.15,15.63-4.86,8.76-1.07,10.22.95,15-1.33a57.76,57.76,0,0,0,9.43-6.19c1.13-.89,2-1.67,2.66-2.21a5.84,5.84,0,0,1,2.5,1,6.89,6.89,0,0,1,2.51,4.27c.56,2.84-.72,4.48.15,5.16s1.79-.57,3.83-.14c.22,0,2.31.5,2.65,1.77s-1.05,1.94-2.06,3.83c-.56,1.05-.94,2.28-1,5.6-.16,5.26.61,8.34.73,11.2a24.6,24.6,0,0,1-4.12,14c-4.12,6.31-10.24,8.76-13.42,10-2.71,1.08-13.67,5.45-25.5.14a30.52,30.52,0,0,1-15.19-15.18C247.39,314.34,245.05,308.94,246.59,302.2Z"/><path class="cls-23" d="M264.91,304.36a6.82,6.82,0,0,0-4.32,1.77c-2.26,2.16-2.06,5.61-1.87,8.74a23,23,0,0,0,1.18,6,4.09,4.09,0,0,1-1.87,1.77c-1.15.5-2,.09-5.21,0-1.76-.05-2,.05-2.26.19-1.6,1-1.13,4.36-1.08,4.72.58,3.88,3.83,6.37,6.49,8.36,3.4,2.54,6.62,4.95,10.91,6.29a6.08,6.08,0,0,1,3.63,2.36,5.66,5.66,0,0,1,.59,3.73s-.06.63.1,9.73c0,1.28.13,7.26,3.24,11,4.87,5.85,17.23,6.43,21.33,1.08,3.35-4.36,1.13-12.58.89-13.47a35.46,35.46,0,0,1-1.87-7.47,13.38,13.38,0,0,1,.29-6.09c.88-2.59,2.28-3.17,3.74-5.5a15.44,15.44,0,0,0,2.16-8.46,14.21,14.21,0,0,0,6.49-5.5c.79-1.29,2.23-3.66,1.37-5.9-.06-.17-.74-1.88-2.16-2.16-.41-.08-1.11-.09-3,1.28-3,2.1-3.77,3.84-5.07,3.61a2.52,2.52,0,0,1-1.42-1.06,4.4,4.4,0,0,1-.89-2.55c-.36-6-.16-8.93-1.67-11.3a7.22,7.22,0,0,0-1.86-2,62,62,0,0,0-27.82.79Z"/><path class="cls-24" d="M372.21,320.77a29.27,29.27,0,0,0-4.86-5.45l-.65.6c-3.56,3.3-6.49,6-8.49,7.8l-.54.49c-3.48,3.09-23.07,20.26-43.84,32.38a16,16,0,0,1-6.34,2.22,15.74,15.74,0,0,1-7.07-.89l-1.26-2.5-.73-1.48a1.26,1.26,0,0,0-2.26-.49l-.34.59a60.2,60.2,0,0,1-3.6,5.5,58.47,58.47,0,0,1-5.67,6.64l-15.28-6.46-2.63-1.11a2.67,2.67,0,0,0-1.62-.29,2.61,2.61,0,0,0-1.48.73l-1.4,5.36a50.41,50.41,0,0,0-6.34,2.36c-13.72,6.15-21.19,16.76-26.68,24.76-6.72,9.8-11.52,16.79-12.68,27.57-.46,4.31-1.32,13.35,3.68,22,2.64,4.54,6,7.22,12.54,12.38A124.29,124.29,0,0,0,252.06,465h4.87l1.46,2.83.6,1.15,4.13-.1,54.4-1.37a22.88,22.88,0,0,0,2-2.31,22.64,22.64,0,0,0,2.58-4.47,22.17,22.17,0,0,0,1.77-7.52V389.62a210.62,210.62,0,0,0,47-51.87c1.93-3,3.7-5.92,5.31-8.72A29.29,29.29,0,0,0,372.21,320.77ZM252.65,444.61a13.42,13.42,0,0,1-6.63-7.82c-1.56-5.53,1.22-12,7.07-15.62Z"/><path class="cls-20" d="M369.3,314.84c1.38,2.19,1.54,2.1,2.91,4.24,2.48,3.88,2.21,4.6,3.46,5.34a6.14,6.14,0,0,0,7.26-1.29c1-1.21,1-2.65,1-4.09,0-6.61-1.51-13.41.07-19.83.17-.68.75-2.77-.33-4a3,3,0,0,0-1-.7c-2.32-1.24-3.92-4.35-4.28-6.85-.21-1.51.12-2.14-.51-3.14-.47-.73-1-.91-2.1-1.8a23.94,23.94,0,0,1-2.44-2.4c-2.06-2.26-3.17-6-3.61-7.63a3.29,3.29,0,0,0-1.62-1.32,3,3,0,0,0-2.1,0,3.06,3.06,0,0,0-1.48,1.22,4.82,4.82,0,0,0-.36,3.57c1,4.57,1.51,19.65,1.36,26a17.75,17.75,0,0,0,1,7.56A31.91,31.91,0,0,0,369.3,314.84Z"/><path class="cls-25" d="M221.41,669.58a11.42,11.42,0,0,1,2.46-4.52c3.19-3.52,7.5-3.39,12-4.82A27.39,27.39,0,0,0,248,652.09l23.34-.2.54,17.79Z"/><path class="cls-25" d="M361.23,669.88a11.42,11.42,0,0,0-2.46-4.52c-3.18-3.53-7.5-3.4-12-4.82a27.51,27.51,0,0,1-12.09-8.16l-23.34-.2L310.81,670Z"/><path class="cls-26" d="M298.18,448.93,285.5,464.27l-13-14.16q4.35-35.87,8.69-71.74a5.31,5.31,0,0,1-2.59-4.43c0-3.09,3-5.6,6.68-5.6s6.68,2.51,6.68,5.6A5.21,5.21,0,0,1,289.9,378Z"/></g></g></svg>