<svg xmlns="http://www.w3.org/2000/svg" viewBox="0 0 955 725.9"><defs><style>.cls-1,.cls-10{fill:none;}.cls-2{fill:#00b5cc;}.cls-3{fill:#95a5a6;}.cls-4{fill:#ffffeb;}.cls-5{fill:#fd6a00;}.cls-6{fill:#fff;}.cls-7{fill:#ec644b;}.cls-8{fill:#00e640;}.cls-9{fill:#f87f2b;}.cls-10{stroke:aqua;stroke-miterlimit:10;stroke-width:0.31px;}.cls-11{fill:#99bbc1;}.cls-12{fill:#62b45f;}.cls-13{fill:#87a7ae;}.cls-14{fill:#7b989e;opacity:0.5;}.cls-15{fill:#dcdfda;}.cls-16{fill:#f5a466;}.cls-17{fill:#e47525;}.cls-18{fill:#8c9e97;}.cls-19{fill:#66756b;}.cls-20{fill:#d9e0e4;}.cls-21{fill:#a9c1c6;}.cls-22{fill:#87a0d2;}.cls-23{fill:#f9b42d;}.cls-24{fill:#ffffed;opacity:0.51;}</style></defs><title>Asset 51</title><g id="Layer_2" data-name="Layer 2"><g id="Course_pro" data-name="Course pro"><line class="cls-1" x1="862.67" y1="391.42" x2="862.22" y2="393.43"/><path class="cls-2" d="M665.28,206.43c1.29-12.36,15.39-20.11,22.69-24.11,6.45-3.54,20.8-9.46,72.95-7.6,26.41.95,40.25,1.58,57.58,9,14,6,33.29,14.24,37.09,31.08,4.32,19.18-13.92,38.56-26.67,47.42-26.08,18.12-57.09,12.64-74.43,9.45C724,266,704.79,251.28,692.78,242,678.28,230.89,663.88,219.81,665.28,206.43Z"/><path class="cls-2" d="M.06,725.9a71,71,0,0,0,30-14.1c16.16-13.24,16.44-26.72,30.83-36.12,12.47-8.13,26.31-7.19,38.76-6.16,32.32,2.65,50.59,17.43,74.88,30,9.12,4.7,67.31,33.81,131.26,24.67,11.83-1.7,59.93-8.58,67-33.48,3.73-13.23-5.53-26.61,3.52-45.81,3.28-7,7.48-11.53,11.45-15.86A153.12,153.12,0,0,1,422,605.21c52-26.21,93.66-8.43,226.19-.35,21.85,1.34,52.48,2.79,91.45-2.61,54.4-7.54,74-21.37,79.25-25.26,28.65-21.22,39.81-50,43.55-60.09,10.47-28.11,8.92-52,7.84-66.19-1-12.86-6.56-70.79-51.39-117.57-25.48-26.6-55.57-41.17-75.77-50.95-26.62-12.9-46-17.68-73.15-38.76-16.72-13-34.61-27.2-32.23-42.68,2.49-16.14,25.39-25.19,36.58-29.61,16.46-6.5,32.64-7.19,47.9-7.83,14.51-.62,13.46.81,24.39,0,18.43-1.38,39.24-2.92,51.38-16.55,8.71-9.78,4.6-16.39,17.42-32.23,5.61-6.93,6.78-6.14,13.59-14.1,11.86-13.89,11.86-22.82,19.38-29.95,14.36-13.63,29.53-16,42.28-20.27C908.07,44.37,931.24,31.46,955,0L0,2Z"/><rect class="cls-3" x="15.17" y="499.84" width="809.99" height="22.31" rx="5.01" ry="5.01"/><path class="cls-4" d="M302.72,258.88a12.91,12.91,0,0,1-24.6,5.48l22.05-13.19A12.88,12.88,0,0,1,302.72,258.88Z"/><path class="cls-5" d="M330.09,409.84H154.71a5.84,5.84,0,0,1-5.83-5.83V383.83a5.84,5.84,0,0,1,5.83-5.84H330.09a2.18,2.18,0,0,1,0,4.35H154.71a1.49,1.49,0,0,0-1.49,1.49V404a1.49,1.49,0,0,0,1.49,1.49H330.09a2.17,2.17,0,0,1,0,4.34Z"/><path class="cls-6" d="M154.79,382H320.27a0,0,0,0,1,0,0v23.57a0,0,0,0,1,0,0H154.79a2.29,2.29,0,0,1-2.29-2.29v-19A2.29,2.29,0,0,1,154.79,382Z"/><path class="cls-7" d="M369.18,461.93h-191c-3.88,0-6.92-4-6.92-9.07V419c0-5.09,3-9.08,6.92-9.08h191a2.94,2.94,0,0,1,0,5.87H178.26a4.13,4.13,0,0,0-1.11,3.21v33.86a4.1,4.1,0,0,0,1.11,3.2H369.18a2.94,2.94,0,0,1,0,5.87Z"/><path class="cls-6" d="M178.08,416H358.49a0,0,0,0,1,0,0V456a0,0,0,0,1,0,0H178.08a2.29,2.29,0,0,1-2.29-2.29V418.25A2.29,2.29,0,0,1,178.08,416Z"/><path class="cls-8" d="M299.13,500.62H156.3c-2.9,0-5.17-3-5.17-6.78V468.52c0-3.81,2.27-6.79,5.17-6.79H299.13a2.2,2.2,0,0,1,0,4.39H156.35a3.05,3.05,0,0,0-.83,2.4v25.32a3.07,3.07,0,0,0,.83,2.4H299.13a2.19,2.19,0,1,1,0,4.38Z"/><path class="cls-6" d="M156.59,466H293.32a1,1,0,0,1,1,1v28.34a1,1,0,0,1-1,1H156.59a2.16,2.16,0,0,1-2.16-2.16V468.2A2.16,2.16,0,0,1,156.59,466Z"/><polygon class="cls-9" points="201.5 432.63 201.5 449.75 193.26 441.51 185.02 449.75 185.02 432.63 201.5 432.63"/><line class="cls-10" x1="185.02" y1="432.47" x2="253.51" y2="432.47"/><rect class="cls-4" x="365.24" y="349.44" width="235.21" height="139.45" rx="7.68" ry="7.68"/><rect class="cls-11" x="372.52" y="356.15" width="220.65" height="126.02" rx="5.08" ry="5.08"/><rect class="cls-12" x="386.78" y="374.05" width="136.66" height="69.26"/><rect class="cls-13" x="539.24" y="374.05" width="39.51" height="98.08"/><path class="cls-14" d="M593.17,364.84v88.64l-17.33-14.42-47.51-39.53-19-15.81-7.27-6.05-25.87-21.52H584.47A8.69,8.69,0,0,1,593.17,364.84Z"/><path class="cls-15" d="M331.41,488.89H634.28a0,0,0,0,1,0,0V496a3.85,3.85,0,0,1-3.85,3.85H335.26a3.85,3.85,0,0,1-3.85-3.85v-7.1a0,0,0,0,1,0,0Z"/><rect class="cls-16" x="639.12" y="452.52" width="167.34" height="47.31"/><rect class="cls-17" x="639.12" y="476.18" width="167.34" height="23.65"/><rect class="cls-18" x="747.79" y="452.52" width="30.57" height="47.31"/><rect class="cls-19" x="747.79" y="476.18" width="30.57" height="23.66"/><circle class="cls-20" cx="763.08" cy="476.18" r="11.83"/><path class="cls-21" d="M774.91,476.18a11.83,11.83,0,1,1-23.66,0Z"/><path class="cls-6" d="M655,423H772.58a0,0,0,0,1,0,0V450a0,0,0,0,1,0,0H655a9.51,9.51,0,0,1-9.51-9.51v-8A9.51,9.51,0,0,1,655,423Z"/><path class="cls-22" d="M778.06,452.52h-119a16,16,0,0,1,0-31.92h119a1.4,1.4,0,0,1,0,2.79h-119a13.17,13.17,0,1,0,0,26.34h119a1.4,1.4,0,0,1,0,2.79Z"/><path class="cls-23" d="M314.35,208.24l-10.8-18.18a2.87,2.87,0,0,0-3.93-1L279,201.28a2.86,2.86,0,0,0-1,3.92l10.82,18.23A51.79,51.79,0,0,0,278,241.56l-145,59.55a14.87,14.87,0,1,0-17.28,24.15L83.57,468.75A31.61,31.61,0,0,0,56.77,500H120a31.62,31.62,0,0,0-24.94-30.9L126.91,327.2a14.87,14.87,0,0,0,11.67-14.53c0-.3,0-.59,0-.88L275.2,255.66a51.88,51.88,0,0,0,7.29,29.72l35.08-21,22.06-13.19L371.79,232A52,52,0,0,0,314.35,208.24ZM92,468.59a30.7,30.7,0,0,0-3.61-.21c-.52,0-1,0-1.56,0l31.82-141.76a14.93,14.93,0,0,0,5,.89ZM275.53,252.17,138,308.65a14.82,14.82,0,0,0-2.62-5.16l141.44-58.1A52,52,0,0,0,275.53,252.17Z"/><path class="cls-24" d="M318.4,500Q300.7,392.64,283,285.29l88.79-53.24L682.82,500Z"/><path class="cls-4" d="M343,257.85A12.1,12.1,0,0,1,320,263l20.67-12.36A12,12,0,0,1,343,257.85Z"/></g></g></svg>